<?xml version="1.0" standalone="no"?><svg xmlns="http://www.w3.org/2000/svg" viewBox="0 0 1440 320"><path fill="#ffd9e2" fill-opacity="1" d="M0,160L7.3,181.3C14.5,203,29,245,44,224C58.2,203,73,117,87,74.7C101.8,32,116,32,131,37.3C145.5,43,160,53,175,80C189.1,107,204,149,218,170.7C232.7,192,247,192,262,165.3C276.4,139,291,85,305,69.3C320,53,335,75,349,112C363.6,149,378,203,393,213.3C407.3,224,422,192,436,176C450.9,160,465,160,480,154.7C494.5,149,509,139,524,165.3C538.2,192,553,256,567,266.7C581.8,277,596,235,611,197.3C625.5,160,640,128,655,128C669.1,128,684,160,698,149.3C712.7,139,727,85,742,106.7C756.4,128,771,224,785,240C800,256,815,192,829,160C843.6,128,858,128,873,117.3C887.3,107,902,85,916,74.7C930.9,64,945,64,960,101.3C974.5,139,989,213,1004,218.7C1018.2,224,1033,160,1047,160C1061.8,160,1076,224,1091,250.7C1105.5,277,1120,267,1135,234.7C1149.1,203,1164,149,1178,144C1192.7,139,1207,181,1222,208C1236.4,235,1251,245,1265,229.3C1280,213,1295,171,1309,176C1323.6,181,1338,235,1353,224C1367.3,213,1382,139,1396,96C1410.9,53,1425,43,1433,37.3L1440,32L1440,0L1432.7,0C1425.5,0,1411,0,1396,0C1381.8,0,1367,0,1353,0C1338.2,0,1324,0,1309,0C1294.5,0,1280,0,1265,0C1250.9,0,1236,0,1222,0C1207.3,0,1193,0,1178,0C1163.6,0,1149,0,1135,0C1120,0,1105,0,1091,0C1076.4,0,1062,0,1047,0C1032.7,0,1018,0,1004,0C989.1,0,975,0,960,0C945.5,0,931,0,916,0C901.8,0,887,0,873,0C858.2,0,844,0,829,0C814.5,0,800,0,785,0C770.9,0,756,0,742,0C727.3,0,713,0,698,0C683.6,0,669,0,655,0C640,0,625,0,611,0C596.4,0,582,0,567,0C552.7,0,538,0,524,0C509.1,0,495,0,480,0C465.5,0,451,0,436,0C421.8,0,407,0,393,0C378.2,0,364,0,349,0C334.5,0,320,0,305,0C290.9,0,276,0,262,0C247.3,0,233,0,218,0C203.6,0,189,0,175,0C160,0,145,0,131,0C116.4,0,102,0,87,0C72.7,0,58,0,44,0C29.1,0,15,0,7,0L0,0Z"></path></svg>